:SAMPLES-PER-SECOND 30
:FULLY-SPECIFIED
:DEGREES
426
root  84.4876 38.63 3.33454 179.483 -27.8907 174.632
RightUpLeg  -8.49462 6.62959 -8.54524
RightLeg  28.0683 -4.68451 -2.94175
RightFoot  -13.8521 -0.0421355 2.3643
RightToes  -1.74624e-010 0 -3.6325e-017
Spine  4.14389 -0.930984 -3.08284
Spine1  5.92194 -0.224745 -4.60297
HEad  -17.3966 21.058 -16.1647
LeftShoulder1  -0.868989 5.639 -34.4942
LeftArm  -6.99862 9.64655 -36.9706
LeftForeArm  20.9239 -11.4031 -6.48352
LeftHand  -0.680315 2.65884 14.6608
RightShoulder  -1.0221 -6.27676 30.2895
RightArm  27.105 -10.3198 44.2676
RightForeArm  12.5522 24.12 4.47079
RightHand  -0.0615305 4.44307 -1.00644
LeftUpLeg  -5.26362 2.44909 -7.36304
LeftLeg  11.492 6.66735 0.543276
LeftFoot  -5.40708 -0.269093 5.80634
LeftToes  -3.96543e-010 8.93632e-011 -2.58531e-011
427
root  84.6453 38.7264 2.96167 179.443 -32.1161 174.715
RightUpLeg  -8.17917 14.6088 -7.96568
RightLeg  23.0975 -3.30148 -1.82075
RightFoot  -12.4012 -0.0557735 3.41008
RightToes  -1.74624e-010 0 -3.6325e-017
Spine  5.08603 -0.718819 -3.15792
Spine1  5.87113 -0.122658 -4.04157
HEad  -15.7462 19.9507 -15.2671
LeftShoulder1  -0.931727 5.74935 -35.2846
LeftArm  -5.52732 8.93636 -35.9567
LeftForeArm  32.0832 -10.4542 -7.0253
LeftHand  -0.47631 12.1732 -8.27395
RightShoulder  -0.902424 -6.011 29.4211
RightArm  25.0017 -10.4746 43.4739
RightForeArm  11.1945 25.0219 4.7721
RightHand  -0.180501 4.49047 -2.40939
LeftUpLeg  -4.18236 2.9841 -6.41839
LeftLeg  10.279 1.85722 -1.05462
LeftFoot  -4.92025 -0.31155 6.08044
LeftToes  -3.96543e-010 8.93632e-011 -2.58531e-011
428
root  84.7264 38.7017 2.68554 -179.361 -36.7086 174.057
RightUpLeg  -9.401 18.8244 -8.85348
RightLeg  20.1745 1.83825 0.580009
RightFoot  -10.3931 -0.10275 4.08267
RightToes  -1.74624e-010 0 -3.6325e-017
Spine  5.33503 -0.644717 -2.9049
Spine1  5.77528 0.0713738 -4.37336
HEad  -14.1076 18.4111 -14.1779
LeftShoulder1  -0.892235 5.68291 -34.7533
LeftArm  -4.96586 8.72947 -36.4872
LeftForeArm  37.0797 -10.125 -7.29758
LeftHand  -1.56556 15.4975 -16.5875
RightShoulder  -0.972393 -6.20119 29.4896
RightArm  24.5625 -9.84953 41.3949
RightForeArm  9.49372 25.2622 4.90705
RightHand  -0.184708 4.63548 -2.42789
LeftUpLeg  -4.63974 2.25417 -6.78593
LeftLeg  10.2264 -1.86165 -1.56693
LeftFoot  -4.74884 -0.322952 6.11432
LeftToes  -3.96543e-010 8.93632e-011 -2.58531e-011
429
root  84.8371 38.6034 2.35911 -178.665 -40.7607 173.144
RightUpLeg  -9.51048 17.2223 -8.99834
RightLeg  20.9928 2.93205 1.03367
RightFoot  -10.4556 -0.0923704 2.76634
RightToes  -1.74624e-010 0 -3.6325e-017
Spine  6.44643 -0.454024 -2.71841
Spine1  5.52522 0.327028 -4.84571
HEad  -12.2525 17.1346 -13.294
LeftShoulder1  -0.919063 5.7601 -34.5398
LeftArm  -4.16112 9.24144 -36.6943
LeftForeArm  36.3797 -10.3825 -7.51711
LeftHand  -0.767521 12.1386 -11.6724
RightShoulder  -0.939918 -6.10523 29.5583
RightArm  24.5531 -8.45032 39.9231
RightForeArm  8.06962 23.478 4.65
RightHand  -0.131017 4.48696 -1.82636
LeftUpLeg  -5.15524 2.93208 -6.40792
LeftLeg  12.0401 -6.35528 -3.68779
LeftFoot  -5.48082 -0.306501 6.61984
LeftToes  -3.96543e-010 8.93632e-011 -2.58531e-011
430
root  84.8749 38.7074 2.0944 -178.348 -45.5452 173.039
RightUpLeg  -7.6126 12.4137 -8.624
RightLeg  19.8185 2.79714 0.915311
RightFoot  -10.3753 -0.0892773 2.18375
RightToes  -1.74624e-010 0 -3.6325e-017
Spine  6.7527 -0.490947 -1.15942
Spine1  6.04773 0.316395 -4.46507
HEad  -10.624 14.6641 -13.1603
LeftShoulder1  -0.916341 5.74821 -34.6314
LeftArm  -3.68171 9.37568 -36.9818
LeftForeArm  30.2631 -11.7332 -7.14464
LeftHand  -0.621386 13.7094 -7.40669
RightShoulder  -0.906763 -6.03723 29.208
RightArm  24.2971 -6.96223 38.6714
RightForeArm  7.22798 20.6973 4.69302
RightHand  -0.101606 4.10072 -1.50913
LeftUpLeg  -4.75476 1.97717 -6.53782
LeftLeg  11.5253 -10.301 -3.4702
LeftFoot  -4.75723 -0.337493 6.36916
LeftToes  -3.96543e-010 8.93632e-011 -2.58531e-011
431
root  84.8233 38.8573 1.82545 -178.555 -50.5194 173.502
RightUpLeg  -5.00141 7.03099 -8.00098
RightLeg  17.6081 3.35959 0.875949
RightFoot  -10.3206 -0.09793 3.23878
RightToes  -1.74624e-010 0 -3.6325e-017
Spine  6.98628 -0.757826 2.06425
Spine1  6.14287 0.356925 -4.69356
HEad  -8.12559 12.7942 -12.4451
LeftShoulder1  -0.908796 5.74526 -34.3529
LeftArm  -0.31519 10.252 -37.3082
LeftForeArm  24.6097 -14.6651 -6.62762
LeftHand  -0.483973 14.9258 -4.61162
RightShoulder  -0.853285 -5.8953 29.0814
RightArm  21.7869 -6.20736 37.5117
RightForeArm  8.46408 17.4826 5.34601
RightHand  -0.0917085 3.56933 -1.46325
LeftUpLeg  -4.0996 0.585064 -6.21558
LeftLeg  10.968 -14.0397 -3.22297
LeftFoot  -4.50593 -0.315574 5.70837
LeftToes  -3.96543e-010 8.93632e-011 -2.58531e-011
432
root  84.8135 38.8032 1.55086 -178.421 -55.2398 174.158
RightUpLeg  -4.01623 0.910997 -7.40543
RightLeg  17.1149 4.75908 0.879651
RightFoot  -11.2149 -0.0817187 4.10854
RightToes  -1.74624e-010 0 -3.6325e-017
Spine  7.44813 -0.855256 5.39939
Spine1  5.04512 0.646259 -5.59492
HEad  -5.22008 11.394 -11.4871
LeftShoulder1  -0.976281 5.89818 -34.5804
LeftArm  3.70623 10.6084 -37.0834
LeftForeArm  22.182 -16.6823 -6.23183
LeftHand  -0.197188 12.6114 -2.00009
RightShoulder  -0.842765 -5.8437 29.4052
RightArm  20.0341 -5.99378 36.0879
RightForeArm  9.10637 14.8395 6.10255
RightHand  -0.178505 2.84117 -2.73004
LeftUpLeg  -5.76089 -2.0832 -5.7499
LeftLeg  13.6887 -15.7923 -3.65732
LeftFoot  -5.9034 -0.19811 5.01167
LeftToes  -3.96543e-010 8.93632e-011 -2.58531e-011
433
root  84.8438 38.641 1.27541 -178.972 -59.4611 175.694
RightUpLeg  -3.71827 -3.65282 -6.18907
RightLeg  17.3685 4.94811 0.755366
RightFoot  -12.5849 -0.0426449 3.89524
RightToes  -1.74624e-010 0 -3.6325e-017
Spine  7.87945 -0.236906 8.01505
Spine1  3.99105 1.30733 -4.98459
HEad  -3.51839 8.47233 -10.982
LeftShoulder1  -0.870749 5.62723 -34.8125
LeftArm  5.56752 11.2292 -37.8193
LeftForeArm  20.4926 -18.8275 -5.29148
LeftHand  -0.00989693 10.3618 1.30596
RightShoulder  -0.82647 -5.81616 29.1243
RightArm  18.6472 -6.05964 34.8455
RightForeArm  8.72964 12.8871 6.62632
RightHand  -0.146931 3.46315 -2.18087
LeftUpLeg  -8.82764 -2.39216 -3.96507
LeftLeg  18.6751 -17.3512 -6.10518
LeftFoot  -8.03819 -0.0887444 4.40781
LeftToes  -3.96543e-010 8.93632e-011 -2.58531e-011
434
root  84.867 38.5414 1.00884 -179.066 -63.5227 176.344
RightUpLeg  -3.45419 -6.11829 -5.48257
RightLeg  17.8541 3.24146 0.35798
RightFoot  -13.5419 -0.0166884 3.93751
RightToes  -1.74624e-010 0 -3.6325e-017
Spine  8.4397 0.223559 8.91512
Spine1  3.28602 1.62593 -3.87102
HEad  -3.38001 4.83822 -10.4559
LeftShoulder1  -0.788212 5.41285 -35.089
LeftArm  7.38649 12.3012 -38.2844
LeftForeArm  18.7287 -21.5271 -4.30166
LeftHand  0.0148301 7.15549 3.24084
RightShoulder  -0.887624 -5.95631 29.6022
RightArm  18.3725 -4.29824 33.6679
RightForeArm  8.60766 11.0461 7.27415
RightHand  -0.104428 3.86213 -1.54931
LeftUpLeg  -11.077 -4.00154 -3.2864
LeftLeg  21.3126 -14.1523 -5.69213
LeftFoot  -9.685 0.0547207 0.599043
LeftToes  -3.96543e-010 8.93632e-011 -2.58531e-011
435
root  84.8368 38.4354 0.748039 -178.997 -67.5009 176.365
RightUpLeg  -2.99956 -8.17861 -5.12832
RightLeg  18.8051 1.04939 -0.107983
RightFoot  -14.5034 0.00111469 3.59258
RightToes  -1.74624e-010 0 -3.6325e-017
Spine  7.30576 0.185935 9.62379
Spine1  5.44524 1.55869 -3.37854
HEad  -4.10609 2.46944 -9.32026
LeftShoulder1  -0.795518 5.41811 -35.3495
LeftArm  6.67495 12.3395 -38.6131
LeftForeArm  17.6146 -23.2564 -4.09313
LeftHand  -0.0187772 8.42393 0.804423
RightShoulder  -0.891395 -5.9519 29.8211
RightArm  16.7564 -0.549162 34.9615
RightForeArm  11.9756 8.6295 7.6508
RightHand  -0.0260256 3.09804 -0.592737
LeftUpLeg  -13.1028 -2.7027 -3.13324
LeftLeg  23.938 -10.4638 -4.72776
LeftFoot  -9.65053 0.0642372 -0.407263
LeftToes  -3.96543e-010 8.93632e-011 -2.58531e-011
436
root  84.8018 38.4848 0.479243 -176.862 -71.9009 174.733
RightUpLeg  -2.32846 -11.2048 -5.47504
RightLeg  18.2609 -0.524737 -0.18685
RightFoot  -14.6059 -0.00181286 3.40888
RightToes  -1.74624e-010 0 -3.6325e-017
Spine  5.27522 -0.156783 9.34415
Spine1  8.19462 1.06845 -3.14326
HEad  -5.22685 0.183044 -8.10815
LeftShoulder1  -0.692545 5.20958 -34.4076
LeftArm  6.30201 12.2893 -40.0766
LeftForeArm  16.6423 -23.6787 -4.24481
LeftHand  0.0227558 8.05416 2.47382
RightShoulder  -0.83464 -5.81421 29.4941
RightArm  14.317 2.86302 37.7203
RightForeArm  13.2717 7.05267 7.32104
RightHand  -0.0416412 3.46447 -0.811131
LeftUpLeg  -15.1278 -2.67187 -3.73856
LeftLeg  24.8677 -5.50199 -2.44938
LeftFoot  -9.15524 0.0586359 -0.214404
LeftToes  -3.96543e-010 8.93632e-011 -2.58531e-011
